<?xml version="1.0" standalone="no"?>
<!DOCTYPE svg PUBLIC "-//W3C//DTD SVG 20010904//EN"
 "http://www.w3.org/TR/2001/REC-SVG-20010904/DTD/svg10.dtd">
<svg version="1.0" xmlns="http://www.w3.org/2000/svg"
 width="900.000000pt" height="900.000000pt" viewBox="0 0 900.000000 900.000000"
 preserveAspectRatio="xMidYMid meet">
<metadata>
Created by potrace 1.10, written by Peter Selinger 2001-2011
</metadata>
<g transform="translate(0.000000,900.000000) scale(0.100000,-0.100000)"
fill="#000000" stroke="none">
<path d="M1435 8844 c-92 -11 -240 -67 -337 -130 -166 -107 -312 -302 -364
-486 -37 -132 -41 -354 -8 -463 79 -259 238 -451 471 -569 280 -140 649 -103
898 90 107 83 189 181 250 299 48 92 70 160 91 285 16 99 16 110 -1 224 -16
110 -52 223 -97 306 -56 105 -183 242 -288 311 -59 39 -182 99 -203 99 -6 0
-32 7 -57 16 -45 16 -270 27 -355 18z m314 -291 c158 -66 252 -139 324 -252
49 -76 63 -111 83 -201 58 -264 -83 -542 -335 -662 -37 -17 -104 -37 -157 -46
-79 -14 -105 -14 -171 -4 -166 27 -299 106 -400 239 -45 60 -61 90 -94 183
-25 71 -27 262 -3 336 63 193 187 322 389 404 77 32 292 34 364 3z"/>
<path d="M6537 8720 c-81 -41 -113 -82 -170 -217 -27 -65 -56 -134 -64 -153
-21 -46 -30 -68 -103 -245 -34 -82 -67 -163 -75 -180 -7 -16 -34 -82 -60 -145
-26 -63 -53 -130 -61 -147 -8 -18 -21 -49 -29 -68 -8 -19 -21 -50 -29 -68 -7
-17 -41 -98 -75 -179 -34 -82 -88 -214 -122 -295 -34 -82 -67 -161 -74 -178
-8 -16 -48 -113 -90 -215 -42 -102 -82 -198 -90 -215 -7 -16 -34 -82 -60 -145
-52 -128 -70 -169 -94 -219 -11 -25 -16 -63 -16 -135 0 -92 3 -105 26 -141 38
-57 65 -79 142 -114 37 -17 96 -44 132 -61 35 -16 67 -30 70 -30 3 0 33 -13
67 -29 96 -44 145 -53 214 -39 98 19 164 73 207 168 32 71 27 59 172 415 42
104 55 134 64 154 6 12 37 15 157 16 164 1 215 12 331 72 34 17 64 29 67 26 9
-9 7 -1043 -1 -1043 -5 0 -57 -2 -116 -3 l-108 -4 -36 -36 c-34 -33 -36 -39
-36 -97 1 -69 18 -96 78 -124 49 -24 687 -24 743 0 59 24 81 59 82 127 0 51
-4 61 -33 93 l-33 36 -116 6 c-108 4 -117 6 -122 26 -3 11 -6 320 -6 686 0
574 2 673 16 720 36 126 46 229 34 330 -6 52 -18 115 -27 140 -50 144 -144
280 -247 359 -58 43 -62 50 -47 79 5 9 23 53 41 97 17 44 38 94 45 110 7 17
27 66 45 110 17 44 38 94 45 110 80 181 89 241 53 351 -35 108 -62 128 -312
234 -54 23 -106 45 -115 50 -103 51 -178 54 -264 10z m231 -301 c37 -17 81
-37 97 -44 118 -52 125 -59 102 -102 -8 -15 -30 -64 -47 -108 -18 -44 -38 -93
-45 -110 -8 -16 -35 -82 -60 -145 -26 -63 -53 -128 -60 -145 -8 -16 -34 -82
-60 -145 -26 -63 -52 -128 -60 -145 -13 -32 -74 -178 -151 -367 -25 -62 -51
-126 -59 -143 -7 -16 -27 -66 -45 -110 -18 -44 -38 -93 -45 -110 -8 -16 -34
-81 -59 -142 -25 -62 -67 -164 -92 -225 -25 -62 -51 -126 -59 -143 -7 -16 -27
-66 -45 -110 -18 -44 -38 -93 -45 -110 -8 -16 -30 -70 -50 -120 -48 -117 -55
-124 -98 -103 -17 9 -89 40 -159 69 -70 29 -130 59 -133 67 -5 12 13 65 52
152 9 19 22 50 29 68 8 17 20 47 28 65 7 17 28 68 46 112 18 44 38 94 45 110
8 17 41 98 75 180 34 83 67 164 74 180 8 17 20 46 28 65 9 19 22 51 31 70 8
19 36 87 62 150 25 63 52 129 60 145 7 17 34 82 60 145 26 63 54 130 61 147 8
18 21 49 29 68 8 19 21 50 29 68 8 17 35 84 61 147 25 63 52 129 60 145 7 17
41 98 75 180 72 173 87 209 106 248 8 16 14 35 14 42 0 8 7 21 16 30 20 20 41
16 132 -26z m180 -1123 c22 -24 50 -64 62 -87 24 -48 50 -156 50 -206 0 -46
-26 -151 -49 -199 -25 -51 -89 -137 -121 -162 -106 -84 -309 -143 -326 -97 -6
14 44 142 117 303 16 34 29 66 29 71 0 5 6 22 14 38 8 15 36 80 61 143 25 63
53 128 61 143 8 16 14 34 14 41 0 15 29 56 39 56 5 0 27 -20 49 -44z"/>
<path d="M1500 6801 c-278 -46 -523 -279 -590 -560 -19 -79 -20 -127 -20
-1389 0 -1238 1 -1311 19 -1382 16 -67 51 -149 97 -233 22 -40 141 -164 189
-197 88 -61 147 -87 260 -117 53 -14 181 -17 1040 -20 539 -2 986 -5 993 -8 9
-3 12 -249 12 -1183 0 -1308 -5 -1206 66 -1332 32 -55 138 -163 178 -181 12
-5 28 -13 36 -18 61 -37 107 -46 225 -45 118 0 121 1 200 38 109 52 198 142
251 251 l39 80 0 1510 c0 1459 -1 1512 -19 1560 -42 112 -140 226 -238 278
-29 16 -84 37 -123 48 -66 17 -121 19 -927 19 l-856 0 -5 27 c-7 36 -7 953 -1
976 3 9 10 17 16 17 5 0 65 -53 131 -119 265 -257 326 -304 457 -343 66 -19
1274 -19 1340 0 78 24 171 75 219 122 45 44 121 149 121 168 0 5 7 23 16 41
21 41 30 208 16 283 -6 32 -24 84 -39 115 -34 71 -150 191 -213 220 -121 55
-93 53 -624 53 l-494 0 -93 87 c-92 85 -362 341 -589 558 -63 61 -178 169
-254 240 -77 72 -145 136 -152 143 -67 66 -247 218 -275 232 -93 48 -143 61
-254 65 -60 2 -130 0 -155 -4z m195 -286 c91 -24 105 -34 379 -289 65 -61 131
-122 145 -136 14 -14 104 -99 200 -190 235 -223 234 -222 437 -416 215 -205
262 -248 291 -263 15 -8 170 -11 538 -11 576 0 550 3 624 -72 53 -53 65 -85
65 -169 1 -66 -2 -81 -27 -117 -15 -23 -46 -54 -69 -69 l-42 -28 -620 0 -621
0 -55 34 c-30 18 -66 45 -80 60 -14 14 -88 84 -165 155 -77 72 -198 185 -270
252 -177 166 -174 164 -235 164 -64 0 -115 -34 -130 -89 -8 -24 -10 -289 -8
-817 3 -764 3 -782 23 -804 11 -12 29 -27 40 -33 15 -9 278 -13 975 -17 953
-5 955 -5 995 -26 53 -29 91 -73 115 -135 20 -49 20 -78 20 -1462 0 -1589 6
-1469 -76 -1551 -41 -42 -118 -77 -164 -75 -74 1 -188 86 -212 157 -10 29 -14
316 -18 1289 l-5 1253 -33 32 -32 33 -1078 6 c-669 3 -1092 9 -1117 15 -117
30 -241 123 -293 222 -65 124 -62 61 -62 1431 0 1108 2 1250 16 1314 40 179
163 298 359 348 89 22 117 23 190 4z"/>
<path d="M292 6646 l-37 -34 0 -2004 0 -2003 22 -60 c45 -127 104 -208 204
-282 64 -48 95 -64 174 -92 57 -20 79 -21 511 -21 249 0 459 -3 468 -6 14 -6
16 -64 16 -558 0 -303 -4 -556 -8 -562 -6 -9 -98 -74 -140 -99 -19 -11 -120
-78 -340 -222 -147 -97 -172 -125 -172 -188 0 -74 62 -135 136 -135 39 0 58 8
132 58 170 114 318 216 353 244 20 15 40 28 43 28 4 0 31 18 60 40 29 22 56
40 60 40 7 0 111 -70 404 -273 202 -140 197 -137 248 -137 77 0 134 61 134
144 0 55 -32 89 -166 177 -70 46 -209 138 -308 204 l-181 120 -3 549 c-1 397
1 553 9 562 9 12 114 14 593 14 501 0 585 2 603 15 65 46 86 160 37 206 l-26
24 -1171 5 c-810 4 -1183 9 -1207 17 -85 26 -145 79 -193 168 l-22 40 -5 1985
c-3 1092 -9 1995 -14 2007 -13 36 -67 63 -125 63 -44 0 -56 -5 -89 -34z"/>
<path d="M4855 4886 c-16 -7 -39 -23 -50 -36 -19 -21 -20 -38 -23 -390 -3
-424 -3 -427 70 -460 42 -19 78 -20 1461 -20 l1417 0 -2 -1472 -3 -1473 -775
-5 c-597 -4 -782 -8 -806 -18 -16 -7 -39 -27 -50 -45 -18 -30 -19 -53 -19
-394 0 -351 1 -362 21 -390 11 -15 32 -34 45 -40 19 -10 294 -12 1271 -10
l1248 2 32 33 33 32 0 2308 c0 2191 -1 2309 -18 2335 -40 61 86 57 -1956 57
-1526 -1 -1871 -3 -1896 -14z m3593 -262 c22 -6 22 -7 20 -183 l-3 -176 -1694
-3 c-1349 -2 -1696 0 -1703 10 -4 7 -8 86 -8 175 0 144 2 163 18 172 19 11
3329 16 3370 5z m10 -2423 c1 -1306 -1 -1777 -9 -1787 -10 -12 -185 -14 -1053
-12 l-1041 3 0 180 0 180 787 3 787 2 34 34 c26 25 36 46 41 82 3 26 6 728 6
1559 0 830 0 1516 0 1523 0 10 48 12 223 10 l222 -3 3 -1774z"/>
</g>
</svg>
